<svg width="33" height="31" viewBox="0 0 33 31" fill="none" xmlns="http://www.w3.org/2000/svg">
<path d="M32 14.6082V24.3227C32 25.6302 31.442 26.8841 30.4488 27.8086C29.4557 28.7331 28.1086 29.2525 26.704 29.2525H23.2022C22.5962 29.2525 22.015 29.0286 21.5864 28.6298C21.1577 28.2311 20.9167 27.6903 20.9162 27.1262V24.1873C20.9162 23.5195 20.6312 22.879 20.1239 22.4067C19.6166 21.9345 18.9285 21.6692 18.2111 21.6692H14.7889C14.0715 21.6692 13.3834 21.9345 12.8761 22.4067C12.3688 22.879 12.0838 23.5195 12.0838 24.1873V27.1197C12.0833 27.6838 11.8423 28.2247 11.4136 28.6234C10.985 29.0221 10.4038 29.2461 9.79776 29.2461H6.29598C4.8914 29.2461 3.54434 28.7267 2.55116 27.8022C1.55797 26.8777 1 25.6237 1 24.3163V14.6082C1.00048 13.7878 1.18567 12.9766 1.54362 12.2268C1.90157 11.4771 2.42434 10.8056 3.07821 10.2555L12.2726 2.5174C13.432 1.54079 14.9398 1 16.5035 1C18.0671 1 19.5749 1.54079 20.7344 2.5174L29.9253 10.2555C30.5785 10.8059 31.1006 11.4776 31.458 12.2273C31.8153 12.9769 32 13.788 32 14.6082Z" stroke="white" stroke-width="2" stroke-miterlimit="10" stroke-linecap="round"/>
<path d="M13.0363 15.382H19.9637" stroke="white" stroke-width="2" stroke-miterlimit="10" stroke-linecap="round"/>
</svg>
