<svg width="50" height="23" viewBox="0 0 50 23" fill="none" xmlns="http://www.w3.org/2000/svg">
<path d="M37.3222 22.3262H30.5628L25.7832 17.1632L25.0496 16.3704L20.0698 10.9906L25.0543 5.60554L25.4631 5.16349L30.2426 0H37.0016L26.8282 10.9906H26.8292L28.4288 12.7193L32.5427 17.1632L37.3222 22.3262Z" fill="white"/>
<path d="M50 7.83447V14.4901C50 18.8183 46.7526 22.3246 42.7467 22.3246H39.4583L34.6792 17.1632H41.8454C42.0645 17.1888 42.2858 17.1888 42.5049 17.1632C43.8891 17.0044 45 15.8568 45.2205 14.3858C45.2355 14.2868 45.2469 14.1861 45.2532 14.0834C45.2584 14.0061 45.2609 13.9277 45.2609 13.8489C45.2609 13.77 45.2584 13.6932 45.2532 13.6143C45.2469 13.5106 45.2355 13.4115 45.2205 13.3124V9.03402C45.2744 8.67823 45.2744 8.31634 45.2205 7.96055C44.9829 6.37446 43.7096 5.16349 42.1749 5.16349H41.6379C41.5455 5.1557 41.4532 5.15207 41.3593 5.15207C41.2654 5.15207 41.173 5.1557 41.0807 5.16349H34.3472L39.1288 0H42.7467C46.7526 0 50 3.50839 50 7.83447Z" fill="white"/>
<path d="M28.4018 22.3262H21.6434L20.9829 21.6133L19.3823 19.8845L16.8623 17.1632L14.5275 14.6432L11.1478 10.9921L14.5259 7.34313L15.0593 6.76722C15.091 6.7378 15.1204 6.70587 15.147 6.67175C15.2837 6.50116 15.358 6.28901 15.3576 6.07042C15.3576 5.61176 15.0463 5.23145 14.6396 5.16349C14.5524 5.14826 14.4632 5.14826 14.376 5.16349H4.77747V22.3262L2.71975 20.1014L0 17.1632V0H26.0494C26.5163 0 26.8992 0.410921 26.8992 0.917826C26.9 1.10961 26.8436 1.29727 26.7373 1.4569L24.3688 4.0153L23.3057 5.16349L22.7641 5.74926L19.3843 9.40033L17.9119 10.9906H17.9088L24.3626 17.9627L28.4018 22.3262Z" fill="white"/>
</svg>
