<svg xmlns="http://www.w3.org/2000/svg" viewBox="0 0 963.69 430.31"><defs><style>.cls-1{fill:#e5b334;}</style></defs><title>rkd</title><g id="Layer_2" data-name="Layer 2"><g id="Layer_1-2" data-name="Layer 1"><polygon class="cls-1" points="719.34 430.31 589.06 430.31 496.94 330.8 482.8 315.52 386.82 211.83 482.89 108.04 490.77 99.52 582.89 0 713.16 0 517.08 211.83 517.1 211.83 547.93 245.15 627.22 330.8 719.34 430.31"/><path class="cls-1" d="M963.69,151V279.28c0,83.42-62.59,151-139.8,151H760.51L668.4,330.8H806.52a54.76,54.76,0,0,0,12.71,0c26.68-3.06,48.09-25.18,52.34-53.53.29-1.91.51-3.85.63-5.83.1-1.49.15-3,.15-4.52s-.05-3-.15-4.52c-.12-2-.34-3.91-.63-5.82V174.12a69,69,0,0,0,0-20.69c-4.58-30.57-29.12-53.91-58.7-53.91H802.52c-1.78-.15-3.56-.22-5.37-.22s-3.59.07-5.37.22H662L754.16,0h69.73C901.1,0,963.69,67.62,963.69,151Z"/><path class="cls-1" d="M547.41,430.31H417.15l-12.73-13.74-30.85-33.32L325,330.8l-45-48.57-65.14-70.37,0,0,65.11-70.33,10.28-11.1v0a15.56,15.56,0,0,0,1.69-1.84l0,0A18.49,18.49,0,0,0,296,117c0-8.84-6-16.17-13.84-17.48a14.77,14.77,0,0,0-5.08,0h-185V430.31L52.42,387.43,0,330.8V0H502.07c9,0,16.38,7.92,16.38,17.69a18.61,18.61,0,0,1-3.12,10.39L469.68,77.39,449.19,99.52l-10.44,11.29-65.14,70.37-28.38,30.65h-.06l0,0L469.56,346.21Z"/></g></g></svg>